PathFileType	4	(X/Y/Z)	24_1_3_p0_0-215_filt_butterworth.trc
DataRate	CameraRate	NumFrames	NumMarkers	Units	OrigDataRate	OrigDataStartFrame	OrigNumFrames
60.0	60.0	7	27	m	60.0	188	215
Frame#	Time	RHip			RKnee			RAnkle			RBigToe			RSmallToe			RHeel			LHip			LKnee			LAnkle			LBigToe			LSmallToe			LHeel			Neck			Head			Nose			RShoulder			RElbow			RWrist			RThumb			RIndex			RPinky			LShoulder			LElbow			LWrist			LThumb			LIndex			LPinky			
		X1	Y1	Z1	X2	Y2	Z2	X3	Y3	Z3	X4	Y4	Z4	X5	Y5	Z5	X6	Y6	Z6	X7	Y7	Z7	X8	Y8	Z8	X9	Y9	Z9	X10	Y10	Z10	X11	Y11	Z11	X12	Y12	Z12	X13	Y13	Z13	X14	Y14	Z14	X15	Y15	Z15	X16	Y16	Z16	X17	Y17	Z17	X18	Y18	Z18	X19	Y19	Z19	X20	Y20	Z20	X21	Y21	Z21	X22	Y22	Z22	X23	Y23	Z23	X24	Y24	Z24	X25	Y25	Z25	X26	Y26	Z26	X27	Y27	Z27	
188	3.1333333333333333	0.4264158162477938	0.7714928187275739	0.6867734931737424	0.438743889039611	0.31460256588993235	0.6857536831388135	0.43529269062964243	-0.0909507555108641	0.6928483157552553	0.4376434584060075	-0.032627433026052616	0.4921042616055951	0.4850541117393583	-0.053773610348197734	0.5351818466357945	0.4000089915203464	-0.17243537590484065	0.7503181827141575	0.23799245443712122	0.7887502211027004	0.63736528002707	0.20534868330342199	0.3091505635290309	0.6636104345711582	0.2045771446488529	-0.07811985467818874	0.6489922850357992	0.24944732214050058	-0.015260481243776006	0.4617290062826974	0.19857029421455366	-0.03285216856834844	0.49515767682985	0.20811910220332516	-0.14700925839818987	0.691950851633098	0.36584503542650004	1.2720744750355857	0.7181957817446302	0.4162216394831516	1.5144317924788862	0.6974489542999248	0.4018653033967351	1.39974532945923	0.6213546531535514	0.4987634127382704	1.1651019256000676	0.7568558035158255	0.5176082928871549	0.9058191086386964	0.7386324522402594	0.4955454522683199	0.7176192888018784	0.5980512582148028	0.42972453848049896	0.6494644141694159	0.48608513617230026	0.45077070335864844	0.6408821822113768	0.4711294981869333	0.45968202708796374	0.6034279860233464	0.5401468147783415	0.21163197546228663	1.2017577838196816	0.6698082351762132	0.15582855268046178	0.9668541368864598	0.6369026970049336	0.2414847385413713	0.7750269455834216	0.5180104594172963	0.3160752556576326	0.7015801081425795	0.4860206110903422	0.3052054333442773	0.6544653539613599	0.47761046044631217	0.26563097952293924	0.6299827985293681	0.5189754084153283	
189	3.15	0.4267641177339057	0.7684353164442154	0.689693136558839	0.43968686086931524	0.3136559601337597	0.6862663483406914	0.4356347141256664	-0.09102569819743357	0.6929153185606325	0.437393229702124	-0.03146251301555743	0.4922670941569679	0.4843517308065214	-0.05076800859627195	0.5325682133882171	0.40099699697623165	-0.1711455667988887	0.7485109134712578	0.2379455451925718	0.7858261983342139	0.6413524771438617	0.20464846314430377	0.3086209077687938	0.6647291234909395	0.2046276519538689	-0.07713628434143723	0.6488856252581235	0.24922310675153622	-0.015572338548470357	0.46342757218588243	0.19812116198752394	-0.033445761333705915	0.49602684804425456	0.20813068406434934	-0.14599833280516789	0.6919262379796529	0.3668674311666382	1.2723603127328056	0.7176509939595845	0.41632558577659073	1.5153805653404449	0.6948720693139193	0.40081849172156325	1.3985337978854764	0.6232894690424282	0.498917418707791	1.1649579581010254	0.7572937431371556	0.5161614719846029	0.905619423341176	0.7361025366861773	0.4873946247700034	0.724376177342014	0.587218338800438	0.4174973616904233	0.6651994500676965	0.4749793434818743	0.43043872332419947	0.6440168870238678	0.46674944515834166	0.44133482171285954	0.6129148675860074	0.5266611302346443	0.2128910003318696	1.202214981824596	0.66956020366175	0.15840432547571828	0.9676528153924421	0.6347283168681301	0.25338353841514405	0.7830940490305883	0.5157761141393311	0.33715838791831043	0.7149323374149791	0.48085076724981735	0.32734240334023756	0.6683880074104129	0.4687413722946806	0.28928584222916504	0.6376091982062031	0.5194455964817004	
190	3.1666666666666665	0.42729862913880956	0.7651690042652373	0.6923473184850466	0.4406426095724398	0.31229761173763315	0.687076092984879	0.43591324343142	-0.09109117202107359	0.6929628611782671	0.43667152274742993	-0.030617619148009284	0.4923843463938846	0.48358766775425666	-0.047526002840971804	0.5297452935560728	0.40213690796629875	-0.169489465220667	0.7465456269279568	0.23794874999101553	0.7825824375115495	0.6454713831689786	0.20389790113032352	0.30786057484519713	0.6658608373107843	0.2046690028124312	-0.07606396137450623	0.648756108674032	0.2484353775791722	-0.015116117977397411	0.46427625727729466	0.19695025743401173	-0.03509368028418988	0.4981694650107848	0.208126266375073	-0.1449314962280295	0.691922819740835	0.3676969447697971	1.2722699165981095	0.7179276637313131	0.41591650868490704	1.5163072712159058	0.6928203650888668	0.39989457686082935	1.3974087780742717	0.6253226733956636	0.4989252940232193	1.164815716730565	0.7576675025515858	0.5145479385226639	0.905762566872536	0.7333116704021236	0.47913407685498344	0.7321523846396711	0.5757821967691256	0.40522324908719387	0.6842834412510189	0.4654190768373273	0.40872807751738754	0.6507526305713134	0.46390063365355766	0.42204016714637094	0.6209319094455935	0.5185804931716665	0.21447915323070815	1.202568058675924	0.6702229032377873	0.1614539313991945	0.9686124990375857	0.6329479668018871	0.2657632766774122	0.7909070536078187	0.5143904777187388	0.3549235656939377	0.7267426041513212	0.4776127779737924	0.34809293845193695	0.6836152872539358	0.462688644814821	0.31020386812434203	0.6469712747577555	0.5221034863842564	
191	3.183333333333333	0.4280392838727443	0.761737417442882	0.6948861881656205	0.4415761602446541	0.31054418634336595	0.6882550812623647	0.43616075646472663	-0.09112504723917045	0.6930327337962846	0.43552941478082835	-0.030228524747432997	0.49245618481287334	0.4828723513943709	-0.04449644540893545	0.5271035860196664	0.4033198732731082	-0.16757457943794696	0.7446229472902407	0.2379590228280106	0.7791007875873153	0.6496328229288152	0.2031780394742372	0.30697588808787	0.6668673566782766	0.2047040843539721	-0.0749630144417106	0.648616346311254	0.24719021204709934	-0.013974935727611146	0.46429375041148685	0.1950138402546734	-0.03790587031363732	0.5016485016697803	0.20810142963087613	-0.14382696554770186	0.6919239272353702	0.3683115895581449	1.2719442933253784	0.7189599696336624	0.4147842723594015	1.5171514475206158	0.6914843887066104	0.39919647475386477	1.3966240521247912	0.6269927859276945	0.4989288853222199	1.164678357671241	0.7579120845026224	0.5131006232700442	0.9064233676077906	0.730839729691561	0.4709816250534462	0.7405532776615353	0.5654933042809408	0.3937180725649036	0.7047097741455098	0.45826990952244706	0.38853772118099184	0.6620847347876034	0.4625742564460793	0.4038089478619026	0.6279420304429778	0.5155125686902872	0.21604314276864875	1.2026450019506723	0.6723768689577141	0.1645772814559906	0.9698328222693475	0.6320834282959948	0.2784718710111661	0.7985163909761366	0.512846975942703	0.3684426760421172	0.7370926558530718	0.475444260472064	0.365469611840101	0.699003587160246	0.46000605347947116	0.32728863838699296	0.6579354833819901	0.5255225561091785	
192	3.2	0.42901505357084785	0.7581784992613649	0.6974079602089922	0.4424503031889811	0.30860567786230125	0.6895847193887765	0.4364063421308242	-0.0911237037323712	0.6931288771830167	0.43413200310869626	-0.03036648842335586	0.4924899108639947	0.4823125955582156	-0.04211261695807893	0.5250210601645269	0.40449581102441223	-0.1655123503646568	0.742761480868632	0.23796518746169962	0.775511336518163	0.6537046225558673	0.20258208241647063	0.3060840456011635	0.6676009046560732	0.20473904383710323	-0.0739351237711979	0.6484861084619271	0.24568277470305377	-0.012551586509290336	0.46383853875106495	0.19246765019917897	-0.04167222578676133	0.5061743450321077	0.20805948250775075	-0.14273840695347215	0.6919019697732098	0.3687282414812906	1.2714731375652417	0.7206726374814599	0.4128441347308194	1.517939845670988	0.6908444917364578	0.39883081602198295	1.3963635042031948	0.6280410411882587	0.4990045464447924	1.1645458985764972	0.7580132206871177	0.5121834336531085	0.907454699799413	0.7291647003160054	0.4637784342875315	0.7487911749089557	0.557979573513796	0.38375192394979524	0.723905069813672	0.45409816774204886	0.372483234160036	0.6770240982996459	0.4623477359730911	0.38875434273067777	0.6348820239047624	0.5151252983749011	0.21729529416113874	1.202447504667389	0.6759694487926688	0.1673996709753071	0.9711061890191981	0.6326302313625758	0.2903434862023238	0.805660713164959	0.510530372148307	0.3779714306351293	0.7461795331595571	0.4725078049286416	0.37868102191355746	0.7136067904800836	0.46001609904457996	0.3393970847813077	0.6697597662215369	0.5279097662219799	
193	3.216666666666667	0.4302673926649757	0.7545308487047142	0.6998761051274957	0.4432423346082681	0.3067086117761396	0.6907340675996709	0.43664748321327124	-0.09109857555275476	0.6932251545086232	0.4326772213958938	-0.030971219619482862	0.49250677821635036	0.4819892859806398	-0.04071072164405862	0.5237894625763023	0.4056853208088529	-0.16346216740796932	0.7408707453911049	0.23799480462225203	0.7719811662223254	0.657499294133513	0.20216214528980755	0.3052632388486236	0.6679946959356843	0.20477884598966423	-0.07307375154615628	0.6483804091417189	0.24417921010280214	-0.01145787556422577	0.46338796410291616	0.18964377118349668	-0.04589493986348489	0.5111536739685076	0.20800127364663473	-0.14174419119409248	0.6918338562655667	0.36890128474699724	1.2709012276075589	0.7228670831485593	0.41013154036462596	1.5186632017024664	0.690947329593782	0.3988039329776617	1.396612375255685	0.6284727453647996	0.49913920327272765	1.1644570675396295	0.7580300589883839	0.5120016755286181	0.9085442192202974	0.7284989126202048	0.4585288665381867	0.7561201371021862	0.5541530008668982	0.3762150642827516	0.7395457024446148	0.452618028835734	0.36195406561790744	0.6930032362644617	0.4630388027066277	0.3783674506129986	0.64228604068928	0.5153797977187566	0.21804187853861118	1.2020310260905283	0.680376492845145	0.16964440660056557	0.9721071067061806	0.6346554768266577	0.29967728292960616	0.8116277566334203	0.5077896614464916	0.38414513349490353	0.753728507255663	0.46776077492601253	0.38781897975184404	0.7267318170038106	0.4609283960015491	0.34589498027387966	0.6813038141889075	0.5283977414529557	
194	3.2333333333333334	0.4317720929690915	0.7509408564074307	0.7020755254109855	0.44394095699431035	0.3049668173728454	0.6914492190103899	0.43685580826258474	-0.09106222037899356	0.6932968060861505	0.4313660732643193	-0.03178108710095398	0.4925464589274814	0.48191263893609926	-0.04033705490527065	0.5234482309702876	0.40689287614241687	-0.16168807868239032	0.7389564478214015	0.23806215908381165	0.7686747880845253	0.6608415365011405	0.20192771202740925	0.3045576631794309	0.668051783384043	0.20482359429895763	-0.07241268861429338	0.648302996696027	0.24298293203356142	-0.011143705419590033	0.4632035423793869	0.18705401722230997	-0.04979241389562969	0.5156926850576938	0.20792499570970543	-0.14092445044431484	0.6917465938723966	0.3686789343849599	1.2702974160931715	0.7251641873322818	0.4066875389916471	1.5192018503389353	0.6920376788694496	0.39891846805606634	1.3971668414182254	0.6285532306797934	0.4992922392088589	1.1645024717315806	0.7580559280057844	0.5125327584425101	0.909487795197651	0.7287356202460327	0.45573568447751384	0.7622161088772942	0.5536309771218462	0.3718163004672652	0.7502068851800885	0.4526028878783305	0.3568600759563354	0.7071349722356474	0.4648069910966365	0.37291963194065947	0.6498631220481585	0.5159062845044892	0.21807877734086142	1.2013075187055477	0.6851047791713747	0.17117940285782185	0.972689218619794	0.6376380116455731	0.3051673385511402	0.815597943005141	0.5056887581201829	0.38738069951571874	0.7590476303111041	0.46214429315987865	0.393113469822048	0.7372956181217806	0.4611597930352229	0.3475244131516527	0.6912278923672662	0.5274749263498335	
